<mxfile host="app.diagrams.net" modified="2024-05-02T11:26:16.515Z" agent="Mozilla/5.0 (Macintosh; Intel Mac OS X 10_15_7) AppleWebKit/537.36 (KHTML, like Gecko) Chrome/123.0.0.0 Safari/537.36" etag="-8Q1NpW6BCAbAXpOmpID" version="24.2.1" type="device">
  <diagram name="Page-1" id="0c8Yt9MsvHJoqUSvydr9">
    <mxGraphModel dx="1547" dy="972" grid="1" gridSize="10" guides="1" tooltips="1" connect="1" arrows="1" fold="1" page="1" pageScale="1" pageWidth="1169" pageHeight="827" math="0" shadow="0">
      <root>
        <mxCell id="0" />
        <mxCell id="1" parent="0" />
        <mxCell id="cxQKtJ8LFQlWA3GDB1gu-8" style="edgeStyle=orthogonalEdgeStyle;rounded=0;orthogonalLoop=1;jettySize=auto;html=1;entryX=0;entryY=0.5;entryDx=0;entryDy=0;" edge="1" parent="1" source="cxQKtJ8LFQlWA3GDB1gu-1" target="cxQKtJ8LFQlWA3GDB1gu-2">
          <mxGeometry relative="1" as="geometry" />
        </mxCell>
        <mxCell id="cxQKtJ8LFQlWA3GDB1gu-9" style="edgeStyle=orthogonalEdgeStyle;rounded=0;orthogonalLoop=1;jettySize=auto;html=1;exitX=1;exitY=0.5;exitDx=0;exitDy=0;entryX=0;entryY=0.5;entryDx=0;entryDy=0;" edge="1" parent="1" source="cxQKtJ8LFQlWA3GDB1gu-1" target="cxQKtJ8LFQlWA3GDB1gu-3">
          <mxGeometry relative="1" as="geometry" />
        </mxCell>
        <mxCell id="cxQKtJ8LFQlWA3GDB1gu-10" style="edgeStyle=orthogonalEdgeStyle;rounded=0;orthogonalLoop=1;jettySize=auto;html=1;exitX=1;exitY=0.5;exitDx=0;exitDy=0;entryX=0;entryY=0.5;entryDx=0;entryDy=0;" edge="1" parent="1" source="cxQKtJ8LFQlWA3GDB1gu-1" target="cxQKtJ8LFQlWA3GDB1gu-4">
          <mxGeometry relative="1" as="geometry" />
        </mxCell>
        <mxCell id="cxQKtJ8LFQlWA3GDB1gu-11" style="edgeStyle=orthogonalEdgeStyle;rounded=0;orthogonalLoop=1;jettySize=auto;html=1;exitX=1;exitY=0.5;exitDx=0;exitDy=0;entryX=0;entryY=0.5;entryDx=0;entryDy=0;" edge="1" parent="1" source="cxQKtJ8LFQlWA3GDB1gu-1" target="cxQKtJ8LFQlWA3GDB1gu-5">
          <mxGeometry relative="1" as="geometry" />
        </mxCell>
        <mxCell id="cxQKtJ8LFQlWA3GDB1gu-12" style="edgeStyle=orthogonalEdgeStyle;rounded=0;orthogonalLoop=1;jettySize=auto;html=1;exitX=1;exitY=0.5;exitDx=0;exitDy=0;entryX=0;entryY=0.5;entryDx=0;entryDy=0;" edge="1" parent="1" source="cxQKtJ8LFQlWA3GDB1gu-1" target="cxQKtJ8LFQlWA3GDB1gu-6">
          <mxGeometry relative="1" as="geometry" />
        </mxCell>
        <mxCell id="cxQKtJ8LFQlWA3GDB1gu-13" style="edgeStyle=orthogonalEdgeStyle;rounded=0;orthogonalLoop=1;jettySize=auto;html=1;exitX=1;exitY=0.5;exitDx=0;exitDy=0;entryX=0;entryY=0.5;entryDx=0;entryDy=0;" edge="1" parent="1" source="cxQKtJ8LFQlWA3GDB1gu-1" target="cxQKtJ8LFQlWA3GDB1gu-7">
          <mxGeometry relative="1" as="geometry" />
        </mxCell>
        <mxCell id="cxQKtJ8LFQlWA3GDB1gu-15" style="edgeStyle=orthogonalEdgeStyle;rounded=0;orthogonalLoop=1;jettySize=auto;html=1;exitX=1;exitY=0.5;exitDx=0;exitDy=0;entryX=0;entryY=0.5;entryDx=0;entryDy=0;" edge="1" parent="1" source="cxQKtJ8LFQlWA3GDB1gu-1" target="cxQKtJ8LFQlWA3GDB1gu-14">
          <mxGeometry relative="1" as="geometry" />
        </mxCell>
        <mxCell id="cxQKtJ8LFQlWA3GDB1gu-17" style="edgeStyle=orthogonalEdgeStyle;rounded=0;orthogonalLoop=1;jettySize=auto;html=1;exitX=1;exitY=0.5;exitDx=0;exitDy=0;entryX=0;entryY=0.5;entryDx=0;entryDy=0;" edge="1" parent="1" source="cxQKtJ8LFQlWA3GDB1gu-1" target="cxQKtJ8LFQlWA3GDB1gu-16">
          <mxGeometry relative="1" as="geometry" />
        </mxCell>
        <mxCell id="cxQKtJ8LFQlWA3GDB1gu-19" style="edgeStyle=orthogonalEdgeStyle;rounded=0;orthogonalLoop=1;jettySize=auto;html=1;exitX=1;exitY=0.5;exitDx=0;exitDy=0;entryX=0;entryY=0.5;entryDx=0;entryDy=0;" edge="1" parent="1" source="cxQKtJ8LFQlWA3GDB1gu-1" target="cxQKtJ8LFQlWA3GDB1gu-18">
          <mxGeometry relative="1" as="geometry" />
        </mxCell>
        <mxCell id="cxQKtJ8LFQlWA3GDB1gu-21" style="edgeStyle=orthogonalEdgeStyle;rounded=0;orthogonalLoop=1;jettySize=auto;html=1;exitX=1;exitY=0.5;exitDx=0;exitDy=0;entryX=0;entryY=0.5;entryDx=0;entryDy=0;" edge="1" parent="1" source="cxQKtJ8LFQlWA3GDB1gu-1" target="cxQKtJ8LFQlWA3GDB1gu-20">
          <mxGeometry relative="1" as="geometry" />
        </mxCell>
        <mxCell id="cxQKtJ8LFQlWA3GDB1gu-1" value="Home Page&lt;div&gt;&lt;br&gt;&lt;/div&gt;&lt;div&gt;&lt;b&gt;Header&lt;/b&gt;&lt;/div&gt;&lt;span style=&quot;background-color: initial;&quot;&gt;- Logo&lt;/span&gt;&lt;br&gt;&lt;span style=&quot;background-color: initial;&quot;&gt;- Search bar&lt;/span&gt;&lt;br&gt;&lt;div&gt;- Social links&lt;/div&gt;&lt;div&gt;&lt;br&gt;&lt;/div&gt;&lt;div&gt;&lt;b&gt;Nav bar&lt;/b&gt;&lt;/div&gt;&lt;div&gt;- Home&lt;/div&gt;&lt;div&gt;- News&lt;/div&gt;&lt;div&gt;- Features and Analysis&lt;/div&gt;&lt;div&gt;- Five Minutes With&lt;/div&gt;&lt;div&gt;- Insights&lt;/div&gt;&lt;div&gt;- Magazine Archive&lt;/div&gt;&lt;div&gt;- BBTV?&lt;/div&gt;&lt;div&gt;- Contact&lt;/div&gt;&lt;div&gt;&lt;br&gt;&lt;/div&gt;&lt;div&gt;&lt;br&gt;&lt;/div&gt;&lt;div&gt;&lt;b&gt;Main Content&lt;/b&gt;&lt;/div&gt;&lt;div&gt;- Latest stories&lt;/div&gt;&lt;div&gt;- Most popular&lt;/div&gt;&lt;div&gt;- BBTV&lt;/div&gt;&lt;div&gt;- Features and Analysis&lt;/div&gt;&lt;div&gt;- Insights&lt;/div&gt;&lt;div&gt;- Latest copy of magazine with link to archive page&lt;/div&gt;&lt;div&gt;- Five Minutes With&lt;/div&gt;&lt;div&gt;&lt;br&gt;&lt;/div&gt;&lt;div&gt;&lt;b&gt;Footer&lt;/b&gt;&lt;/div&gt;&lt;div&gt;- Privacy&lt;/div&gt;&lt;div&gt;- Contact Us&lt;/div&gt;&lt;div&gt;- Footer notes&lt;/div&gt;&lt;div&gt;&lt;br&gt;&lt;/div&gt;" style="rounded=0;whiteSpace=wrap;html=1;align=left;" vertex="1" parent="1">
          <mxGeometry x="70" y="130" width="190" height="500" as="geometry" />
        </mxCell>
        <mxCell id="cxQKtJ8LFQlWA3GDB1gu-26" style="edgeStyle=orthogonalEdgeStyle;rounded=0;orthogonalLoop=1;jettySize=auto;html=1;exitX=1;exitY=0.5;exitDx=0;exitDy=0;" edge="1" parent="1" source="cxQKtJ8LFQlWA3GDB1gu-2" target="cxQKtJ8LFQlWA3GDB1gu-20">
          <mxGeometry relative="1" as="geometry" />
        </mxCell>
        <mxCell id="cxQKtJ8LFQlWA3GDB1gu-2" value="News" style="rounded=0;whiteSpace=wrap;html=1;" vertex="1" parent="1">
          <mxGeometry x="410" y="30" width="120" height="60" as="geometry" />
        </mxCell>
        <mxCell id="cxQKtJ8LFQlWA3GDB1gu-25" style="edgeStyle=orthogonalEdgeStyle;rounded=0;orthogonalLoop=1;jettySize=auto;html=1;exitX=1;exitY=0.5;exitDx=0;exitDy=0;" edge="1" parent="1" source="cxQKtJ8LFQlWA3GDB1gu-3" target="cxQKtJ8LFQlWA3GDB1gu-20">
          <mxGeometry relative="1" as="geometry" />
        </mxCell>
        <mxCell id="cxQKtJ8LFQlWA3GDB1gu-3" value="Features and Analysis" style="rounded=0;whiteSpace=wrap;html=1;" vertex="1" parent="1">
          <mxGeometry x="410" y="110" width="120" height="60" as="geometry" />
        </mxCell>
        <mxCell id="cxQKtJ8LFQlWA3GDB1gu-24" style="edgeStyle=orthogonalEdgeStyle;rounded=0;orthogonalLoop=1;jettySize=auto;html=1;exitX=1;exitY=0.5;exitDx=0;exitDy=0;entryX=0.5;entryY=0;entryDx=0;entryDy=0;" edge="1" parent="1" source="cxQKtJ8LFQlWA3GDB1gu-4" target="cxQKtJ8LFQlWA3GDB1gu-20">
          <mxGeometry relative="1" as="geometry" />
        </mxCell>
        <mxCell id="cxQKtJ8LFQlWA3GDB1gu-4" value="Five Minutes With" style="rounded=0;whiteSpace=wrap;html=1;" vertex="1" parent="1">
          <mxGeometry x="410" y="190" width="120" height="60" as="geometry" />
        </mxCell>
        <mxCell id="cxQKtJ8LFQlWA3GDB1gu-22" style="edgeStyle=orthogonalEdgeStyle;rounded=0;orthogonalLoop=1;jettySize=auto;html=1;exitX=1;exitY=0.5;exitDx=0;exitDy=0;entryX=0.5;entryY=0;entryDx=0;entryDy=0;" edge="1" parent="1" source="cxQKtJ8LFQlWA3GDB1gu-5" target="cxQKtJ8LFQlWA3GDB1gu-20">
          <mxGeometry relative="1" as="geometry" />
        </mxCell>
        <mxCell id="cxQKtJ8LFQlWA3GDB1gu-5" value="Insights" style="rounded=0;whiteSpace=wrap;html=1;" vertex="1" parent="1">
          <mxGeometry x="410" y="273.5" width="120" height="60" as="geometry" />
        </mxCell>
        <mxCell id="cxQKtJ8LFQlWA3GDB1gu-6" value="BBTV?" style="rounded=0;whiteSpace=wrap;html=1;" vertex="1" parent="1">
          <mxGeometry x="410" y="404" width="120" height="60" as="geometry" />
        </mxCell>
        <mxCell id="cxQKtJ8LFQlWA3GDB1gu-7" value="Contact" style="rounded=0;whiteSpace=wrap;html=1;" vertex="1" parent="1">
          <mxGeometry x="410" y="654" width="120" height="60" as="geometry" />
        </mxCell>
        <mxCell id="cxQKtJ8LFQlWA3GDB1gu-14" value="Privacy" style="rounded=0;whiteSpace=wrap;html=1;" vertex="1" parent="1">
          <mxGeometry x="410" y="734" width="120" height="60" as="geometry" />
        </mxCell>
        <mxCell id="cxQKtJ8LFQlWA3GDB1gu-16" value="Magazine Archive" style="rounded=0;whiteSpace=wrap;html=1;" vertex="1" parent="1">
          <mxGeometry x="410" y="494" width="120" height="60" as="geometry" />
        </mxCell>
        <mxCell id="cxQKtJ8LFQlWA3GDB1gu-18" value="Search Results" style="rounded=0;whiteSpace=wrap;html=1;" vertex="1" parent="1">
          <mxGeometry x="410" y="574" width="120" height="60" as="geometry" />
        </mxCell>
        <mxCell id="cxQKtJ8LFQlWA3GDB1gu-20" value="Individual Story Page" style="rounded=0;whiteSpace=wrap;html=1;" vertex="1" parent="1">
          <mxGeometry x="585" y="350" width="120" height="60" as="geometry" />
        </mxCell>
      </root>
    </mxGraphModel>
  </diagram>
</mxfile>
